<svg id="visual" viewBox="0 0 900 600" width="900" height="600" xmlns="http://www.w3.org/2000/svg" xmlns:xlink="http://www.w3.org/1999/xlink" version="1.1"><rect x="0" y="0" width="900" height="600" fill="#ffffff"></rect><defs><linearGradient id="grad1_0" x1="33.3%" y1="0%" x2="100%" y2="100%"><stop offset="20%" stop-color="#fbae3c" stop-opacity="1"></stop><stop offset="80%" stop-color="#fbae3c" stop-opacity="1"></stop></linearGradient></defs><defs><linearGradient id="grad1_1" x1="33.3%" y1="0%" x2="100%" y2="100%"><stop offset="20%" stop-color="#fbae3c" stop-opacity="1"></stop><stop offset="80%" stop-color="#ffffff" stop-opacity="1"></stop></linearGradient></defs><defs><linearGradient id="grad2_0" x1="0%" y1="0%" x2="66.7%" y2="100%"><stop offset="20%" stop-color="#fbae3c" stop-opacity="1"></stop><stop offset="80%" stop-color="#fbae3c" stop-opacity="1"></stop></linearGradient></defs><defs><linearGradient id="grad2_1" x1="0%" y1="0%" x2="66.7%" y2="100%"><stop offset="20%" stop-color="#ffffff" stop-opacity="1"></stop><stop offset="80%" stop-color="#fbae3c" stop-opacity="1"></stop></linearGradient></defs><g transform="translate(900, 0)"><path d="M0 324.5C-44.5 322.6 -89.1 320.7 -124.2 299.8C-159.3 278.9 -184.9 238.9 -203.6 203.6C-222.4 168.4 -234.2 138 -253.1 104.9C-272.1 71.7 -298.3 35.9 -324.5 0L0 0Z" fill="#ffd69f"></path><path d="M0 162.2C-22.3 161.3 -44.5 160.4 -62.1 149.9C-79.6 139.4 -92.5 119.4 -101.8 101.8C-111.2 84.2 -117.1 69 -126.6 52.4C-136.1 35.9 -149.2 17.9 -162.2 0L0 0Z" fill="#fbae3c"></path></g><g transform="translate(0, 600)"><path d="M0 -324.5C32.2 -298.3 64.4 -272.1 108.3 -261.5C152.2 -250.8 207.9 -255.6 229.5 -229.5C251 -203.3 238.4 -146.3 248.5 -102.9C258.7 -59.5 291.6 -29.8 324.5 0L0 0Z" fill="#ffd69f"></path><path d="M0 -162.2C16.1 -149.2 32.2 -136.1 54.1 -130.7C76.1 -125.4 104 -127.8 114.7 -114.7C125.5 -101.7 119.2 -73.2 124.3 -51.5C129.3 -29.8 145.8 -14.9 162.2 0L0 0Z" fill="#fbae3c"></path></g></svg>