<svg id="visual" viewBox="0 0 900 600" width="900" height="600" xmlns="http://www.w3.org/2000/svg" xmlns:xlink="http://www.w3.org/1999/xlink" version="1.1"><rect x="0" y="0" width="900" height="600" fill="#fff"></rect><path d="M0 182L18.8 203C37.7 224 75.3 266 112.8 267.2C150.3 268.3 187.7 228.7 225.2 212.5C262.7 196.3 300.3 203.7 337.8 210.5C375.3 217.3 412.7 223.7 450.2 225.5C487.7 227.3 525.3 224.7 562.8 236C600.3 247.3 637.7 272.7 675.2 272.7C712.7 272.7 750.3 247.3 787.8 224.5C825.3 201.7 862.7 181.3 881.3 171.2L900 161L900 601L881.3 601C862.7 601 825.3 601 787.8 601C750.3 601 712.7 601 675.2 601C637.7 601 600.3 601 562.8 601C525.3 601 487.7 601 450.2 601C412.7 601 375.3 601 337.8 601C300.3 601 262.7 601 225.2 601C187.7 601 150.3 601 112.8 601C75.3 601 37.7 601 18.8 601L0 601Z" fill="#ffffff"></path><path d="M0 350L18.8 340C37.7 330 75.3 310 112.8 299.5C150.3 289 187.7 288 225.2 291.8C262.7 295.7 300.3 304.3 337.8 309.8C375.3 315.3 412.7 317.7 450.2 322.8C487.7 328 525.3 336 562.8 337.5C600.3 339 637.7 334 675.2 333.8C712.7 333.7 750.3 338.3 787.8 339.5C825.3 340.7 862.7 338.3 881.3 337.2L900 336L900 601L881.3 601C862.7 601 825.3 601 787.8 601C750.3 601 712.7 601 675.2 601C637.7 601 600.3 601 562.8 601C525.3 601 487.7 601 450.2 601C412.7 601 375.3 601 337.8 601C300.3 601 262.7 601 225.2 601C187.7 601 150.3 601 112.8 601C75.3 601 37.7 601 18.8 601L0 601Z" fill="#ffeacf"></path><path d="M0 375L18.8 369.8C37.7 364.7 75.3 354.3 112.8 351.2C150.3 348 187.7 352 225.2 367.2C262.7 382.3 300.3 408.7 337.8 421.8C375.3 435 412.7 435 450.2 416.7C487.7 398.3 525.3 361.7 562.8 355.3C600.3 349 637.7 373 675.2 380.3C712.7 387.7 750.3 378.3 787.8 367.7C825.3 357 862.7 345 881.3 339L900 333L900 601L881.3 601C862.7 601 825.3 601 787.8 601C750.3 601 712.7 601 675.2 601C637.7 601 600.3 601 562.8 601C525.3 601 487.7 601 450.2 601C412.7 601 375.3 601 337.8 601C300.3 601 262.7 601 225.2 601C187.7 601 150.3 601 112.8 601C75.3 601 37.7 601 18.8 601L0 601Z" fill="#ffd69f"></path><path d="M0 413L18.8 425.7C37.7 438.3 75.3 463.7 112.8 467.2C150.3 470.7 187.7 452.3 225.2 446.3C262.7 440.3 300.3 446.7 337.8 448.7C375.3 450.7 412.7 448.3 450.2 437.5C487.7 426.7 525.3 407.3 562.8 397.5C600.3 387.7 637.7 387.3 675.2 403.8C712.7 420.3 750.3 453.7 787.8 458C825.3 462.3 862.7 437.7 881.3 425.3L900 413L900 601L881.3 601C862.7 601 825.3 601 787.8 601C750.3 601 712.7 601 675.2 601C637.7 601 600.3 601 562.8 601C525.3 601 487.7 601 450.2 601C412.7 601 375.3 601 337.8 601C300.3 601 262.7 601 225.2 601C187.7 601 150.3 601 112.8 601C75.3 601 37.7 601 18.8 601L0 601Z" fill="#fec26f"></path><path d="M0 543L18.8 540.7C37.7 538.3 75.3 533.7 112.8 533.8C150.3 534 187.7 539 225.2 534.3C262.7 529.7 300.3 515.3 337.8 514.7C375.3 514 412.7 527 450.2 524C487.7 521 525.3 502 562.8 494.3C600.3 486.7 637.7 490.3 675.2 495.7C712.7 501 750.3 508 787.8 516.5C825.3 525 862.7 535 881.3 540L900 545L900 601L881.3 601C862.7 601 825.3 601 787.8 601C750.3 601 712.7 601 675.2 601C637.7 601 600.3 601 562.8 601C525.3 601 487.7 601 450.2 601C412.7 601 375.3 601 337.8 601C300.3 601 262.7 601 225.2 601C187.7 601 150.3 601 112.8 601C75.3 601 37.7 601 18.8 601L0 601Z" fill="#fbae3c"></path></svg>